<?xml version="1.0" encoding="UTF-8"?>
<svg width="700pt" height="700pt" version="1.1" viewBox="0 0 700 700" xmlns="http://www.w3.org/2000/svg" xmlns:xlink="http://www.w3.org/1999/xlink">
 <g>
  <path d="m98 122.5c0-26.102 21.152-47.254 47.254-47.254h409.5c26.102 0 47.254 21.152 47.254 47.254s-21.152 47.254-47.254 47.254h-409.5c-26.102-0.007812-47.254-21.152-47.254-47.254zm456.75 110.25h-409.49c-26.102 0-47.254 21.152-47.254 47.254s21.152 47.254 47.254 47.254h409.5c26.094 0 47.246-21.152 47.246-47.254s-21.152-47.254-47.254-47.254zm0 157.51h-409.49c-26.102 0-47.254 21.145-47.254 47.246s21.152 47.254 47.254 47.254h409.5c26.102 0 47.254-21.152 47.254-47.254-0.003906-26.102-21.16-47.246-47.262-47.246z" fill="#fffffe"/>
  <use x="70" y="644" xlink:href="#t"/>
  <use x="90.550781" y="644" xlink:href="#c"/>
  <use x="104.359375" y="644" xlink:href="#a"/>
  <use x="123.347656" y="644" xlink:href="#g"/>
  <use x="142.242188" y="644" xlink:href="#b"/>
  <use x="155.628906" y="644" xlink:href="#a"/>
  <use x="174.617188" y="644" xlink:href="#k"/>
  <use x="204.410156" y="644" xlink:href="#j"/>
  <use x="224.453125" y="644" xlink:href="#i"/>
  <use x="252.453125" y="644" xlink:href="#a"/>
  <use x="271.441406" y="644" xlink:href="#c"/>
  <use x="285.25" y="644" xlink:href="#f"/>
  <use x="314.425781" y="644" xlink:href="#g"/>
  <use x="333.320312" y="644" xlink:href="#h"/>
  <use x="353.253906" y="644" xlink:href="#s"/>
  <use x="371.875" y="644" xlink:href="#e"/>
  <use x="391.808594" y="644" xlink:href="#b"/>
  <use x="405.195312" y="644" xlink:href="#r"/>
  <use x="414.789062" y="644" xlink:href="#e"/>
  <use x="70" y="672" xlink:href="#q"/>
  <use x="82.183594" y="672" xlink:href="#c"/>
  <use x="95.992188" y="672" xlink:href="#d"/>
  <use x="115.226562" y="672" xlink:href="#f"/>
  <use x="154.152344" y="672" xlink:href="#b"/>
  <use x="167.535156" y="672" xlink:href="#p"/>
  <use x="187.46875" y="672" xlink:href="#a"/>
  <use x="216.207031" y="672" xlink:href="#o"/>
  <use x="239.640625" y="672" xlink:href="#d"/>
  <use x="258.878906" y="672" xlink:href="#e"/>
  <use x="278.8125" y="672" xlink:href="#h"/>
  <use x="308.492188" y="672" xlink:href="#n"/>
  <use x="329.015625" y="672" xlink:href="#c"/>
  <use x="342.820312" y="672" xlink:href="#d"/>
  <use x="362.058594" y="672" xlink:href="#m"/>
  <use x="371.65625" y="672" xlink:href="#a"/>
  <use x="390.648438" y="672" xlink:href="#l"/>
  <use x="407.242188" y="672" xlink:href="#b"/>
 </g>
</svg>
